name rise36.2859peak64.2979fall75.1499.mot
datacolumns 19
datarows 24
range 1.11000100000000 1.14832500000000
endheader
time	ground_force1_vx	ground_force1_vy	ground_force1_vz	ground_force1_px	ground_force1_py	ground_force1_pz	ground_force2_vx	ground_force2_vy	ground_force2_vz	ground_force2_px	ground_force2_py	ground_force2_pz	ground_torque1_x	ground_torque1_y	ground_torque1_z	ground_torque2_x	ground_torque2_y	ground_torque2_z	
1.11000100000000	18.01033000000000	692.96212600000001	42.78326200000000	0.28230200000000	0.00000000000000	0.08868300000000	0.00000000000000	0.00000000000000	0.00000000000000	0.00000000000000	0.00000000000000	0.00000000000000	0.00000000000000	21.17895100000000	0.00000000000000	0.00000000000000	0.00000000000000	0.00000000000000	
1.11165800000000	17.66515400000000	693.26726099999996	42.80701200000000	0.28145300000000	0.00000000000000	0.08865700000000	0.00000000000000	0.00000000000000	0.00000000000000	0.00000000000000	0.00000000000000	0.00000000000000	0.00000000000000	21.20226200000000	0.00000000000000	0.00000000000000	0.00000000000000	0.00000000000000	
1.11332700000000	17.31528500000000	693.61461399999996	42.83532600000000	0.28064000000000	0.00000000000000	0.08862900000000	0.00000000000000	0.00000000000000	0.00000000000000	0.00000000000000	0.00000000000000	0.00000000000000	0.00000000000000	21.23144200000000	0.00000000000000	0.00000000000000	0.00000000000000	0.00000000000000	
1.11499200000000	16.96047500000000	694.00257899999997	42.86793500000000	0.27986100000000	0.00000000000000	0.08859900000000	0.00000000000000	0.00000000000000	0.00000000000000	0.00000000000000	0.00000000000000	0.00000000000000	0.00000000000000	21.26632200000000	0.00000000000000	0.00000000000000	0.00000000000000	0.00000000000000	
1.11666600000000	16.60048700000000	694.42962000000000	42.90457900000000	0.27911500000000	0.00000000000000	0.08856800000000	0.00000000000000	0.00000000000000	0.00000000000000	0.00000000000000	0.00000000000000	0.00000000000000	0.00000000000000	21.30673200000000	0.00000000000000	0.00000000000000	0.00000000000000	0.00000000000000	
1.11833100000000	16.23509100000000	694.89427599999999	42.94501000000000	0.27840100000000	0.00000000000000	0.08853400000000	0.00000000000000	0.00000000000000	0.00000000000000	0.00000000000000	0.00000000000000	0.00000000000000	0.00000000000000	21.35250100000000	0.00000000000000	0.00000000000000	0.00000000000000	0.00000000000000	
1.11999700000000	15.86407000000000	695.39516800000001	42.98899000000000	0.27771600000000	0.00000000000000	0.08849900000000	0.00000000000000	0.00000000000000	0.00000000000000	0.00000000000000	0.00000000000000	0.00000000000000	0.00000000000000	21.40345500000000	0.00000000000000	0.00000000000000	0.00000000000000	0.00000000000000	
1.12166400000000	15.48721600000000	695.93100200000003	43.03629600000000	0.27706000000000	0.00000000000000	0.08846300000000	0.00000000000000	0.00000000000000	0.00000000000000	0.00000000000000	0.00000000000000	0.00000000000000	0.00000000000000	21.45942200000000	0.00000000000000	0.00000000000000	0.00000000000000	0.00000000000000	
1.12333300000000	15.10433200000000	696.50057600000002	43.08671600000000	0.27643100000000	0.00000000000000	0.08842400000000	0.00000000000000	0.00000000000000	0.00000000000000	0.00000000000000	0.00000000000000	0.00000000000000	0.00000000000000	21.52022900000000	0.00000000000000	0.00000000000000	0.00000000000000	0.00000000000000	
1.12500500000000	14.71522900000000	697.10277900000006	43.14005500000000	0.27582600000000	0.00000000000000	0.08838400000000	0.00000000000000	0.00000000000000	0.00000000000000	0.00000000000000	0.00000000000000	0.00000000000000	0.00000000000000	21.58570500000000	0.00000000000000	0.00000000000000	0.00000000000000	0.00000000000000	
1.12666500000000	14.31973300000000	697.73659999999995	43.19613100000000	0.27524400000000	0.00000000000000	0.08834300000000	0.00000000000000	0.00000000000000	0.00000000000000	0.00000000000000	0.00000000000000	0.00000000000000	0.00000000000000	21.65567700000000	0.00000000000000	0.00000000000000	0.00000000000000	0.00000000000000	
1.12833000000000	13.91767700000000	698.40112599999998	43.25478000000000	0.27468300000000	0.00000000000000	0.08830100000000	0.00000000000000	0.00000000000000	0.00000000000000	0.00000000000000	0.00000000000000	0.00000000000000	0.00000000000000	21.72997800000000	0.00000000000000	0.00000000000000	0.00000000000000	0.00000000000000	
1.12999900000000	13.50890800000000	699.09554400000002	43.31585200000000	0.27414100000000	0.00000000000000	0.08825700000000	0.00000000000000	0.00000000000000	0.00000000000000	0.00000000000000	0.00000000000000	0.00000000000000	0.00000000000000	21.80843800000000	0.00000000000000	0.00000000000000	0.00000000000000	0.00000000000000	
1.13166700000000	13.09328500000000	699.81914400000005	43.37921500000000	0.27361500000000	0.00000000000000	0.08821200000000	0.00000000000000	0.00000000000000	0.00000000000000	0.00000000000000	0.00000000000000	0.00000000000000	0.00000000000000	21.89089300000000	0.00000000000000	0.00000000000000	0.00000000000000	0.00000000000000	
1.13333600000000	12.67067700000000	700.57131400000003	43.44475400000000	0.27310300000000	0.00000000000000	0.08816700000000	0.00000000000000	0.00000000000000	0.00000000000000	0.00000000000000	0.00000000000000	0.00000000000000	0.00000000000000	21.97718000000000	0.00000000000000	0.00000000000000	0.00000000000000	0.00000000000000	
1.13499500000000	12.24096800000000	701.35154599999998	43.51237000000000	0.27260400000000	0.00000000000000	0.08812000000000	0.00000000000000	0.00000000000000	0.00000000000000	0.00000000000000	0.00000000000000	0.00000000000000	0.00000000000000	22.06713600000000	0.00000000000000	0.00000000000000	0.00000000000000	0.00000000000000	
1.13666300000000	11.80405600000000	702.15942700000005	43.58198400000000	0.27211500000000	0.00000000000000	0.08807300000000	0.00000000000000	0.00000000000000	0.00000000000000	0.00000000000000	0.00000000000000	0.00000000000000	0.00000000000000	22.16060600000000	0.00000000000000	0.00000000000000	0.00000000000000	0.00000000000000	
1.13832900000000	11.35985100000000	702.99464300000000	43.65353100000000	0.27163300000000	0.00000000000000	0.08802600000000	0.00000000000000	0.00000000000000	0.00000000000000	0.00000000000000	0.00000000000000	0.00000000000000	0.00000000000000	22.25743500000000	0.00000000000000	0.00000000000000	0.00000000000000	0.00000000000000	
1.13999600000000	10.90827800000000	703.85697400000004	43.72696700000000	0.27115700000000	0.00000000000000	0.08797800000000	0.00000000000000	0.00000000000000	0.00000000000000	0.00000000000000	0.00000000000000	0.00000000000000	0.00000000000000	22.35747100000000	0.00000000000000	0.00000000000000	0.00000000000000	0.00000000000000	
1.14166600000000	10.44927900000000	704.74628800000005	43.80226200000000	0.27068400000000	0.00000000000000	0.08792900000000	0.00000000000000	0.00000000000000	0.00000000000000	0.00000000000000	0.00000000000000	0.00000000000000	0.00000000000000	22.46056800000000	0.00000000000000	0.00000000000000	0.00000000000000	0.00000000000000	
1.14333000000000	9.98281000000000	705.66254000000004	43.87940800000000	0.27021200000000	0.00000000000000	0.08788100000000	0.00000000000000	0.00000000000000	0.00000000000000	0.00000000000000	0.00000000000000	0.00000000000000	0.00000000000000	22.56658000000000	0.00000000000000	0.00000000000000	0.00000000000000	0.00000000000000	
1.14499900000000	9.50884300000000	706.60576400000002	43.95840800000000	0.26973900000000	0.00000000000000	0.08783300000000	0.00000000000000	0.00000000000000	0.00000000000000	0.00000000000000	0.00000000000000	0.00000000000000	0.00000000000000	22.67536900000000	0.00000000000000	0.00000000000000	0.00000000000000	0.00000000000000	
1.14665800000000	9.02736900000000	707.57607199999995	44.03928700000000	0.26926300000000	0.00000000000000	0.08778500000000	0.00000000000000	0.00000000000000	0.00000000000000	0.00000000000000	0.00000000000000	0.00000000000000	0.00000000000000	22.78679700000000	0.00000000000000	0.00000000000000	0.00000000000000	0.00000000000000	
1.14832500000000	8.53839500000000	708.57364199999995	44.12208400000000	0.26878100000000	0.00000000000000	0.08773700000000	0.00000000000000	0.00000000000000	0.00000000000000	0.00000000000000	0.00000000000000	0.00000000000000	0.00000000000000	22.90073100000000	0.00000000000000	0.00000000000000	0.00000000000000	0.00000000000000	
